<svg width="1200" height="630" viewBox="0 0 1200 630" fill="none" xmlns="http://www.w3.org/2000/svg">
  <rect width="1200" height="630" fill="#0f172a"/>
  <circle cx="1006" cy="118" r="220" fill="#6366f1" fill-opacity="0.16"/>
  <circle cx="144" cy="522" r="260" fill="#8b5cf6" fill-opacity="0.16"/>
  <path d="M112 466C240 391 333 426 456 340C584 250 674 198 816 231C912 253 980 224 1088 146" stroke="#6366f1" stroke-width="18" stroke-linecap="round" stroke-opacity="0.22"/>
  <path d="M112 474C239 398 332 434 459 346C591 255 676 208 813 239C915 262 982 232 1088 154" stroke="#6366f1" stroke-width="5" stroke-linecap="round"/>
  <rect x="96" y="94" width="150" height="150" rx="24" fill="url(#g)"/>
  <path d="M126 145 L141 115 L151 135 L166 105" stroke="#fff" stroke-width="5" fill="none" stroke-linecap="round" stroke-linejoin="round"/>
  <circle cx="166" cy="105" r="4" fill="#fff"/>
  <text x="270" y="366" fill="#fff" font-family="Arial, Helvetica, sans-serif" font-size="92" font-weight="800" letter-spacing="-2">Blipyy</text>
  <text x="100" y="418" fill="#f9fafb" fill-opacity="0.92" font-family="Arial, Helvetica, sans-serif" font-size="38" font-weight="700">Trading Operating System for Futures</text>
  <text x="100" y="482" fill="#94a3b8" font-family="Arial, Helvetica, sans-serif" font-size="28">Trade Less. Trade Better.</text>
  <text x="100" y="544" fill="#6366f1" font-family="Arial, Helvetica, sans-serif" font-size="28" font-weight="700">blipyy.io</text>
  <defs>
    <linearGradient id="g" x1="0" y1="0" x2="1" y2="1">
      <stop offset="0%" stop-color="#6366f1"/>
      <stop offset="100%" stop-color="#8b5cf6"/>
    </linearGradient>
    <linearGradient id="bg" x1="0" y1="0" x2="1200" y2="630" gradientUnits="userSpaceOnUse">
      <stop stop-color="#0f172a"/>
      <stop offset="0.52" stop-color="#0f172a"/>
      <stop offset="1" stop-color="#1e293b"/>
    </linearGradient>
  </defs>
</svg>
